STARTFONT 2.1
FONT -sun-helmet-bold-i-normal--12-120-75-75-p-76-adobe-fontspecific
SIZE 12 75 75
FONTBOUNDINGBOX 16 15 -2 -3

STARTPROPERTIES 28
FOUNDRY "sun"
FAMILY_NAME "helmet"
WEIGHT_NAME "bold"
SLANT "i"
SETWIDTH_NAME "normal"
ADD_STYLE_NAME ""
PIXEL_SIZE 12
POINT_SIZE 120
RESOLUTION_X 75
RESOLUTION_Y 75
SPACING "p"
AVERAGE_WIDTH 76
CHARSET_REGISTRY "adobe"
CHARSET_ENCODING "fontspecific"
COPYRIGHT "© 1999 Sun Microsystems, Inc."
RAW_PIXELSIZE 1000
RAW_POINTSIZE 964
RAW_ASCENT 929
RAW_DESCENT 205
RAW_AVERAGE_WIDTH 6124
FACE_NAME "HelmetBoldItalic5"
_XMBDFED_INFO "Edited with xmbdfed 2.4."
WEIGHT 10
X_HEIGHT -1
QUAD_WIDTH 7
DEFAULT_CHAR 4
FONT_DESCENT 3
FONT_ASCENT 12
ENDPROPERTIES

CHARS 202

STARTCHAR char32
ENCODING 32
SWIDTH 28 0
DWIDTH 4 0
BBX 0 0 0 0
BITMAP
ENDCHAR

STARTCHAR char33
ENCODING 33
SWIDTH 28 0
DWIDTH 4 0
BBX 5 9 0 0
BITMAP
38
38
30
30
30
20
60
60
E0
ENDCHAR

STARTCHAR char34
ENCODING 34
SWIDTH 43 0
DWIDTH 6 0
BBX 6 5 1 4
BITMAP
6C
EC
48
D8
D8
ENDCHAR

STARTCHAR char35
ENCODING 35
SWIDTH 50 0
DWIDTH 7 0
BBX 6 9 0 0
BITMAP
24
24
28
3C
3C
38
C8
48
48
ENDCHAR

STARTCHAR char36
ENCODING 36
SWIDTH 64 0
DWIDTH 9 0
BBX 8 11 1 -1
BITMAP
08
3C
7E
67
78
3C
1E
C6
FC
78
20
ENDCHAR

STARTCHAR char37
ENCODING 37
SWIDTH 20 0
DWIDTH 13 0
BBX 12 9 0 0
BITMAP
38C0
7D80
ED00
DF60
DEF0
7FB0
0DB0
19E0
18E0
ENDCHAR

STARTCHAR char38
ENCODING 38
SWIDTH 71 0
DWIDTH 10 0
BBX 9 9 0 0
BITMAP
1E00
3F00
3300
3E00
7C00
FF80
CF00
FF00
7B80
ENDCHAR

STARTCHAR char39
ENCODING 39
SWIDTH 21 0
DWIDTH 3 0
BBX 3 5 1 4
BITMAP
60
60
40
E0
E0
ENDCHAR

STARTCHAR char40
ENCODING 40
SWIDTH 35 0
DWIDTH 5 0
BBX 5 11 1 -2
BITMAP
38
30
70
60
E0
E0
C0
C0
C0
C0
C0
ENDCHAR

STARTCHAR char41
ENCODING 41
SWIDTH 35 0
DWIDTH 5 0
BBX 5 11 -1 -2
BITMAP
18
18
18
18
18
18
38
30
30
60
E0
ENDCHAR

STARTCHAR char42
ENCODING 42
SWIDTH 43 0
DWIDTH 6 0
BBX 5 5 1 4
BITMAP
30
70
78
70
58
ENDCHAR

STARTCHAR char43
ENCODING 43
SWIDTH 64 0
DWIDTH 9 0
BBX 7 7 1 0
BITMAP
18
18
FE
FE
18
18
18
ENDCHAR

STARTCHAR char44
ENCODING 44
SWIDTH 28 0
DWIDTH 4 0
BBX 4 5 -1 -2
BITMAP
10
70
60
60
E0
ENDCHAR

STARTCHAR char45
ENCODING 45
SWIDTH 35 0
DWIDTH 5 0
BBX 5 2 0 2
BITMAP
78
F0
ENDCHAR

STARTCHAR char46
ENCODING 46
SWIDTH 28 0
DWIDTH 4 0
BBX 3 3 0 -1
BITMAP
E0
E0
80
ENDCHAR

STARTCHAR char47
ENCODING 47
SWIDTH 50 0
DWIDTH 7 0
BBX 8 9 -1 0
BITMAP
03
07
0E
0C
1C
18
38
70
60
ENDCHAR

STARTCHAR char48
ENCODING 48
SWIDTH 64 0
DWIDTH 9 0
BBX 7 9 1 0
BITMAP
3C
7C
66
E6
C6
CE
CC
7C
78
ENDCHAR

STARTCHAR char49
ENCODING 49
SWIDTH 64 0
DWIDTH 9 0
BBX 5 9 2 0
BITMAP
18
38
F8
F8
30
30
70
70
70
ENDCHAR

STARTCHAR char50
ENCODING 50
SWIDTH 64 0
DWIDTH 9 0
BBX 8 9 0 0
BITMAP
1E
3F
77
73
0E
3C
78
FE
FE
ENDCHAR

STARTCHAR char51
ENCODING 51
SWIDTH 64 0
DWIDTH 9 0
BBX 7 9 1 0
BITMAP
3C
7E
66
0E
1C
0C
CC
FC
78
ENDCHAR

STARTCHAR char52
ENCODING 52
SWIDTH 64 0
DWIDTH 9 0
BBX 8 9 0 0
BITMAP
03
0F
1F
3F
66
FF
FF
0E
0C
ENDCHAR

STARTCHAR char53
ENCODING 53
SWIDTH 64 0
DWIDTH 9 0
BBX 7 9 1 0
BITMAP
7E
7E
60
7C
FE
06
CE
FC
78
ENDCHAR

STARTCHAR char54
ENCODING 54
SWIDTH 64 0
DWIDTH 9 0
BBX 8 8 1 0
BITMAP
1E
77
7C
FE
C6
CE
7C
78
ENDCHAR

STARTCHAR char55
ENCODING 55
SWIDTH 64 0
DWIDTH 9 0
BBX 8 8 1 0
BITMAP
7E
FE
0E
18
38
70
70
60
ENDCHAR

STARTCHAR char56
ENCODING 56
SWIDTH 64 0
DWIDTH 9 0
BBX 7 9 1 0
BITMAP
3C
7E
66
7C
7E
CE
CE
FE
78
ENDCHAR

STARTCHAR char57
ENCODING 57
SWIDTH 64 0
DWIDTH 9 0
BBX 8 9 0 0
BITMAP
1E
3F
77
63
7F
3F
06
EE
7C
ENDCHAR

STARTCHAR char58
ENCODING 58
SWIDTH 28 0
DWIDTH 4 0
BBX 4 7 0 -1
BITMAP
30
70
40
00
60
60
80
ENDCHAR

STARTCHAR char59
ENCODING 59
SWIDTH 28 0
DWIDTH 4 0
BBX 4 8 0 -2
BITMAP
30
70
40
10
60
60
E0
C0
ENDCHAR

STARTCHAR char60
ENCODING 60
SWIDTH 57 0
DWIDTH 8 0
BBX 7 6 0 0
BITMAP
0E
30
C0
60
18
06
ENDCHAR

STARTCHAR char61
ENCODING 61
SWIDTH 64 0
DWIDTH 9 0
BBX 9 5 0 1
BITMAP
FF80
FF80
0000
FF80
FF80
ENDCHAR

STARTCHAR char62
ENCODING 62
SWIDTH 57 0
DWIDTH 8 0
BBX 7 6 0 0
BITMAP
60
18
06
0C
30
C0
ENDCHAR

STARTCHAR char63
ENCODING 63
SWIDTH 57 0
DWIDTH 8 0
BBX 7 10 1 -1
BITMAP
3C
7E
E6
1C
38
30
00
30
70
40
ENDCHAR

STARTCHAR char64
ENCODING 64
SWIDTH 27 0
DWIDTH 14 0
BBX 10 11 1 -1
BITMAP
0E00
1F00
2D80
7FC0
F3C0
F2C0
F240
7F80
3F80
1F80
0F00
ENDCHAR

STARTCHAR char65
ENCODING 65
SWIDTH 71 0
DWIDTH 10 0
BBX 10 9 -1 0
BITMAP
0700
0700
0F80
1F80
1D80
3980
7F80
7FC0
71C0
ENDCHAR

STARTCHAR char66
ENCODING 66
SWIDTH 71 0
DWIDTH 10 0
BBX 9 9 0 0
BITMAP
3F00
7F80
7180
7F80
7F00
6300
E300
FF00
FE00
ENDCHAR

STARTCHAR char67
ENCODING 67
SWIDTH 71 0
DWIDTH 10 0
BBX 8 9 1 0
BITMAP
1C
3E
63
E0
C0
C0
C6
7E
3C
ENDCHAR

STARTCHAR char68
ENCODING 68
SWIDTH 71 0
DWIDTH 10 0
BBX 9 9 0 0
BITMAP
3E00
3F00
7380
7180
7180
6380
6700
FF00
FE00
ENDCHAR

STARTCHAR char69
ENCODING 69
SWIDTH 64 0
DWIDTH 9 0
BBX 9 9 0 0
BITMAP
3F80
3F80
7000
7F00
7F00
6000
E000
FF00
FF00
ENDCHAR

STARTCHAR char70
ENCODING 70
SWIDTH 57 0
DWIDTH 8 0
BBX 9 9 0 0
BITMAP
3F80
7F00
7000
7000
7E00
7E00
E000
E000
6000
ENDCHAR

STARTCHAR char71
ENCODING 71
SWIDTH 6 0
DWIDTH 11 0
BBX 9 9 1 0
BITMAP
1E00
3F00
7380
E000
C780
CF00
C700
7F00
3B00
ENDCHAR

STARTCHAR char72
ENCODING 72
SWIDTH 71 0
DWIDTH 10 0
BBX 10 9 0 0
BITMAP
3180
31C0
71C0
7F80
7F80
6380
E380
E300
6300
ENDCHAR

STARTCHAR char73
ENCODING 73
SWIDTH 28 0
DWIDTH 4 0
BBX 5 9 0 0
BITMAP
38
30
70
70
70
70
E0
E0
60
ENDCHAR

STARTCHAR char74
ENCODING 74
SWIDTH 57 0
DWIDTH 8 0
BBX 8 9 0 0
BITMAP
06
07
07
06
0E
EE
CE
FC
78
ENDCHAR

STARTCHAR char75
ENCODING 75
SWIDTH 71 0
DWIDTH 10 0
BBX 11 9 0 0
BITMAP
3380
37C0
7F00
7E00
7E00
7E00
E700
E700
6380
ENDCHAR

STARTCHAR char76
ENCODING 76
SWIDTH 57 0
DWIDTH 8 0
BBX 7 9 0 0
BITMAP
30
30
70
70
70
60
60
FE
FE
ENDCHAR

STARTCHAR char77
ENCODING 77
SWIDTH 13 0
DWIDTH 12 0
BBX 12 9 0 0
BITMAP
3CC0
7DE0
7DE0
6FE0
6FE0
6EC0
EEC0
EFC0
4CC0
ENDCHAR

STARTCHAR char78
ENCODING 78
SWIDTH 71 0
DWIDTH 10 0
BBX 10 9 0 0
BITMAP
3980
79C0
7980
6D80
6F80
6F80
EF00
E700
6700
ENDCHAR

STARTCHAR char79
ENCODING 79
SWIDTH 6 0
DWIDTH 11 0
BBX 9 9 1 0
BITMAP
1E00
3F00
7380
E180
C180
C380
C700
7E00
3C00
ENDCHAR

STARTCHAR char80
ENCODING 80
SWIDTH 64 0
DWIDTH 9 0
BBX 9 9 0 0
BITMAP
3F00
7F80
7180
7380
7F80
7E00
E000
E000
6000
ENDCHAR

STARTCHAR char81
ENCODING 81
SWIDTH 6 0
DWIDTH 11 0
BBX 8 10 1 -1
BITMAP
1C
7E
73
E3
C3
CB
EE
7E
3E
02
ENDCHAR

STARTCHAR char82
ENCODING 82
SWIDTH 71 0
DWIDTH 10 0
BBX 9 9 0 0
BITMAP
3F00
7F80
7180
7380
7F00
7F00
E700
E700
6700
ENDCHAR

STARTCHAR char83
ENCODING 83
SWIDTH 64 0
DWIDTH 9 0
BBX 8 9 1 0
BITMAP
1E
7E
67
78
3E
1E
C6
FC
78
ENDCHAR

STARTCHAR char84
ENCODING 84
SWIDTH 57 0
DWIDTH 8 0
BBX 8 9 1 0
BITMAP
FF
FE
38
38
30
70
70
70
30
ENDCHAR

STARTCHAR char85
ENCODING 85
SWIDTH 71 0
DWIDTH 10 0
BBX 9 9 1 0
BITMAP
6300
6380
6300
6700
E700
C700
CE00
FE00
7C00
ENDCHAR

STARTCHAR char86
ENCODING 86
SWIDTH 64 0
DWIDTH 9 0
BBX 8 9 1 0
BITMAP
E3
E7
E7
6E
6E
6C
7C
78
78
ENDCHAR

STARTCHAR char87
ENCODING 87
SWIDTH 20 0
DWIDTH 13 0
BBX 12 9 1 0
BITMAP
E760
E770
EF70
6F60
6FE0
7BC0
7BC0
7B80
7380
ENDCHAR

STARTCHAR char88
ENCODING 88
SWIDTH 71 0
DWIDTH 10 0
BBX 12 9 -1 0
BITMAP
3CE0
1DE0
1FC0
0F80
0F00
1F00
3F80
7B80
71C0
ENDCHAR

STARTCHAR char89
ENCODING 89
SWIDTH 71 0
DWIDTH 10 0
BBX 10 9 1 0
BITMAP
E380
7780
7700
3E00
3C00
3800
3800
3800
1800
ENDCHAR

STARTCHAR char90
ENCODING 90
SWIDTH 64 0
DWIDTH 9 0
BBX 9 9 0 0
BITMAP
3F80
7F80
0F80
1E00
3C00
7800
F000
FF00
FF00
ENDCHAR

STARTCHAR char91
ENCODING 91
SWIDTH 43 0
DWIDTH 6 0
BBX 7 11 0 -2
BITMAP
3C
3C
30
30
70
70
70
60
60
F8
F0
ENDCHAR

STARTCHAR char92
ENCODING 92
SWIDTH 28 0
DWIDTH 4 0
BBX 4 9 0 0
BITMAP
80
80
40
40
40
20
20
20
20
ENDCHAR

STARTCHAR char93
ENCODING 93
SWIDTH 43 0
DWIDTH 6 0
BBX 7 11 -1 -2
BITMAP
3C
3C
0C
1C
1C
18
18
38
38
F8
F0
ENDCHAR

STARTCHAR char94
ENCODING 94
SWIDTH 0 0
DWIDTH 0 0
BBX 5 2 -1 9
BITMAP
70
F8
ENDCHAR

STARTCHAR char95
ENCODING 95
SWIDTH 50 0
DWIDTH 7 0
BBX 7 1 0 -2
BITMAP
FE
ENDCHAR

STARTCHAR char96
ENCODING 96
SWIDTH 0 0
DWIDTH 0 0
BBX 3 2 -1 7
BITMAP
E0
60
ENDCHAR

STARTCHAR char97
ENCODING 97
SWIDTH 64 0
DWIDTH 9 0
BBX 8 6 0 0
BITMAP
3E
73
7F
E6
FE
76
ENDCHAR

STARTCHAR char98
ENCODING 98
SWIDTH 64 0
DWIDTH 9 0
BBX 8 9 0 0
BITMAP
30
70
7E
7F
77
63
E7
FE
DC
ENDCHAR

STARTCHAR char99
ENCODING 99
SWIDTH 57 0
DWIDTH 8 0
BBX 6 6 1 0
BITMAP
3C
6C
C0
CC
F8
78
ENDCHAR

STARTCHAR char100
ENCODING 100
SWIDTH 64 0
DWIDTH 9 0
BBX 9 9 0 0
BITMAP
0380
0300
0300
3B00
7F00
E700
C600
FE00
7E00
ENDCHAR

STARTCHAR char101
ENCODING 101
SWIDTH 57 0
DWIDTH 8 0
BBX 8 6 0 0
BITMAP
3C
6E
FF
FF
FE
7C
ENDCHAR

STARTCHAR char102
ENCODING 102
SWIDTH 28 0
DWIDTH 4 0
BBX 5 9 0 0
BITMAP
38
38
30
78
F8
70
60
E0
60
ENDCHAR

STARTCHAR char103
ENCODING 103
SWIDTH 57 0
DWIDTH 8 0
BBX 8 8 0 -2
BITMAP
3A
7F
C6
EE
FE
2E
FC
78
ENDCHAR

STARTCHAR char104
ENCODING 104
SWIDTH 64 0
DWIDTH 9 0
BBX 8 9 0 0
BITMAP
30
70
74
7F
77
67
E6
E6
46
ENDCHAR

STARTCHAR char105
ENCODING 105
SWIDTH 28 0
DWIDTH 4 0
BBX 4 9 0 0
BITMAP
30
30
00
70
60
60
E0
E0
60
ENDCHAR

STARTCHAR char106
ENCODING 106
SWIDTH 28 0
DWIDTH 4 0
BBX 6 11 -2 -2
BITMAP
0C
1C
00
18
18
18
38
38
30
70
F0
ENDCHAR

STARTCHAR char107
ENCODING 107
SWIDTH 57 0
DWIDTH 8 0
BBX 8 9 0 0
BITMAP
30
70
70
7E
7C
7C
FC
EC
6E
ENDCHAR

STARTCHAR char108
ENCODING 108
SWIDTH 28 0
DWIDTH 4 0
BBX 4 9 0 0
BITMAP
30
30
70
70
70
60
E0
E0
60
ENDCHAR

STARTCHAR char109
ENCODING 109
SWIDTH 20 0
DWIDTH 13 0
BBX 12 6 0 0
BITMAP
5EF0
7770
6670
E660
EE60
4660
ENDCHAR

STARTCHAR char110
ENCODING 110
SWIDTH 57 0
DWIDTH 8 0
BBX 8 6 0 0
BITMAP
4E
77
66
E6
EE
66
ENDCHAR

STARTCHAR char111
ENCODING 111
SWIDTH 57 0
DWIDTH 8 0
BBX 6 6 1 0
BITMAP
38
7C
CC
CC
F8
78
ENDCHAR

STARTCHAR char112
ENCODING 112
SWIDTH 64 0
DWIDTH 9 0
BBX 8 8 -1 -2
BITMAP
3E
3F
33
73
7E
6C
60
60
ENDCHAR

STARTCHAR char113
ENCODING 113
SWIDTH 64 0
DWIDTH 9 0
BBX 7 8 1 -2
BITMAP
36
7E
CE
CC
FC
7C
1C
1C
ENDCHAR

STARTCHAR char114
ENCODING 114
SWIDTH 35 0
DWIDTH 5 0
BBX 6 6 0 0
BITMAP
6C
78
60
E0
E0
60
ENDCHAR

STARTCHAR char115
ENCODING 115
SWIDTH 57 0
DWIDTH 8 0
BBX 7 6 0 0
BITMAP
3C
7E
78
1C
FC
78
ENDCHAR

STARTCHAR char116
ENCODING 116
SWIDTH 35 0
DWIDTH 5 0
BBX 5 8 0 0
BITMAP
30
30
78
78
60
60
70
70
ENDCHAR

STARTCHAR char117
ENCODING 117
SWIDTH 57 0
DWIDTH 8 0
BBX 7 6 1 0
BITMAP
4C
4E
CE
CC
FC
E4
ENDCHAR

STARTCHAR char118
ENCODING 118
SWIDTH 50 0
DWIDTH 7 0
BBX 7 6 1 0
BITMAP
CC
DC
DC
F8
F0
E0
ENDCHAR

STARTCHAR char119
ENCODING 119
SWIDTH 13 0
DWIDTH 12 0
BBX 10 6 1 0
BITMAP
CCC0
DDC0
FF80
FF80
EF00
EF00
ENDCHAR

STARTCHAR char120
ENCODING 120
SWIDTH 57 0
DWIDTH 8 0
BBX 8 6 -1 0
BITMAP
3F
1F
1C
3C
7E
76
ENDCHAR

STARTCHAR char121
ENCODING 121
SWIDTH 50 0
DWIDTH 7 0
BBX 7 8 0 -2
BITMAP
66
6E
6C
78
78
70
F0
E0
ENDCHAR

STARTCHAR char122
ENCODING 122
SWIDTH 50 0
DWIDTH 7 0
BBX 7 6 0 0
BITMAP
7E
7E
1C
70
FC
FC
ENDCHAR

STARTCHAR char123
ENCODING 123
SWIDTH 28 0
DWIDTH 4 0
BBX 3 12 1 -3
BITMAP
60
E0
C0
40
C0
80
80
80
C0
C0
E0
E0
ENDCHAR

STARTCHAR char124
ENCODING 124
SWIDTH 21 0
DWIDTH 3 0
BBX 2 9 1 0
BITMAP
C0
C0
C0
C0
C0
C0
C0
C0
C0
ENDCHAR

STARTCHAR char125
ENCODING 125
SWIDTH 28 0
DWIDTH 4 0
BBX 3 12 1 -3
BITMAP
80
C0
C0
C0
C0
60
C0
C0
C0
C0
C0
C0
ENDCHAR

STARTCHAR char126
ENCODING 126
SWIDTH 0 0
DWIDTH 0 0
BBX 5 2 -1 9
BITMAP
78
E8
ENDCHAR

STARTCHAR char128
ENCODING 128
SWIDTH 71 0
DWIDTH 10 0
BBX 11 9 -1 0
BITMAP
0700
0F80
18C0
7F00
7E00
3000
3980
1F80
0F00
ENDCHAR

STARTCHAR char130
ENCODING 130
SWIDTH 21 0
DWIDTH 3 0
BBX 3 5 0 -2
BITMAP
20
E0
E0
C0
C0
ENDCHAR

STARTCHAR char131
ENCODING 131
SWIDTH 0 0
DWIDTH 0 0
BBX 5 2 -1 9
BITMAP
70
F8
ENDCHAR

STARTCHAR char132
ENCODING 132
SWIDTH 43 0
DWIDTH 6 0
BBX 7 5 -1 -3
BITMAP
6C
6C
64
FC
C0
ENDCHAR

STARTCHAR char133
ENCODING 133
SWIDTH 20 0
DWIDTH 13 0
BBX 11 2 1 0
BITMAP
CC60
CC60
ENDCHAR

STARTCHAR char134
ENCODING 134
SWIDTH 57 0
DWIDTH 8 0
BBX 8 11 0 -2
BITMAP
18
1C
1C
7E
7E
38
38
38
30
70
30
ENDCHAR

STARTCHAR char136
ENCODING 136
SWIDTH 0 0
DWIDTH 0 0
BBX 6 2 -2 7
BITMAP
38
78
ENDCHAR

STARTCHAR char138
ENCODING 138
SWIDTH 13 0
DWIDTH 12 0
BBX 0 0 0 0
BITMAP
ENDCHAR

STARTCHAR char139
ENCODING 139
SWIDTH 28 0
DWIDTH 4 0
BBX 2 5 1 1
BITMAP
40
40
80
40
40
ENDCHAR

STARTCHAR char140
ENCODING 140
SWIDTH 27 0
DWIDTH 14 0
BBX 13 9 1 0
BITMAP
1DF8
7FF0
6380
E380
C3E0
C3E0
C700
7FE0
7FE0
ENDCHAR

STARTCHAR char141
ENCODING 141
SWIDTH 13 0
DWIDTH 12 0
BBX 0 0 0 0
BITMAP
ENDCHAR

STARTCHAR char145
ENCODING 145
SWIDTH 28 0
DWIDTH 4 0
BBX 3 5 1 4
BITMAP
60
60
40
E0
C0
ENDCHAR

STARTCHAR char146
ENCODING 146
SWIDTH 28 0
DWIDTH 4 0
BBX 3 5 1 4
BITMAP
60
60
60
E0
C0
ENDCHAR

STARTCHAR char147
ENCODING 147
SWIDTH 43 0
DWIDTH 6 0
BBX 6 5 1 4
BITMAP
6C
6C
D8
D8
D8
ENDCHAR

STARTCHAR char148
ENCODING 148
SWIDTH 43 0
DWIDTH 6 0
BBX 6 5 1 4
BITMAP
6C
FC
48
D8
98
ENDCHAR

STARTCHAR char149
ENCODING 149
SWIDTH 28 0
DWIDTH 4 0
BBX 2 3 1 3
BITMAP
C0
C0
C0
ENDCHAR

STARTCHAR char150
ENCODING 150
SWIDTH 64 0
DWIDTH 9 0
BBX 8 2 0 2
BITMAP
FF
FF
ENDCHAR

STARTCHAR char151
ENCODING 151
SWIDTH 64 0
DWIDTH 9 0
BBX 9 2 0 3
BITMAP
FF80
FF80
ENDCHAR

STARTCHAR char152
ENCODING 152
SWIDTH 0 0
DWIDTH 0 0
BBX 5 2 -1 7
BITMAP
F0
F0
ENDCHAR

STARTCHAR char153
ENCODING 153
SWIDTH 6 0
DWIDTH 11 0
BBX 10 6 0 3
BITMAP
FC40
DCC0
46C0
4740
47C0
6DC0
ENDCHAR

STARTCHAR char155
ENCODING 155
SWIDTH 28 0
DWIDTH 4 0
BBX 2 5 1 1
BITMAP
80
80
40
C0
80
ENDCHAR

STARTCHAR char156
ENCODING 156
SWIDTH 20 0
DWIDTH 13 0
BBX 12 7 0 0
BITMAP
0800
3DE0
77F0
E7F0
C7F0
FFE0
7BC0
ENDCHAR

STARTCHAR char157
ENCODING 157
SWIDTH 13 0
DWIDTH 12 0
BBX 0 0 0 0
BITMAP
ENDCHAR

STARTCHAR char159
ENCODING 159
SWIDTH 71 0
DWIDTH 10 0
BBX 10 11 1 0
BITMAP
3F00
3600
E380
6780
7700
3E00
3C00
3800
3800
3800
1800
ENDCHAR

STARTCHAR char160
ENCODING 160
SWIDTH 28 0
DWIDTH 4 0
BBX 0 0 0 0
BITMAP
ENDCHAR

STARTCHAR char161
ENCODING 161
SWIDTH 28 0
DWIDTH 4 0
BBX 4 9 0 0
BITMAP
30
70
40
00
60
60
E0
E0
40
ENDCHAR

STARTCHAR char162
ENCODING 162
SWIDTH 57 0
DWIDTH 8 0
BBX 6 9 1 -1
BITMAP
10
38
7C
EC
C0
CC
F8
78
20
ENDCHAR

STARTCHAR char163
ENCODING 163
SWIDTH 64 0
DWIDTH 9 0
BBX 8 9 1 0
BITMAP
1E
3F
67
60
F0
F8
72
FE
9C
ENDCHAR

STARTCHAR char164
ENCODING 164
SWIDTH 0 0
DWIDTH 0 0
BBX 4 2 0 9
BITMAP
70
E0
ENDCHAR

STARTCHAR char165
ENCODING 165
SWIDTH 0 0
DWIDTH 0 0
BBX 5 2 -1 9
BITMAP
D8
70
ENDCHAR

STARTCHAR char166
ENCODING 166
SWIDTH 13 0
DWIDTH 12 0
BBX 0 0 0 0
BITMAP
ENDCHAR

STARTCHAR char167
ENCODING 167
SWIDTH 64 0
DWIDTH 9 0
BBX 8 12 0 -3
BITMAP
1E
3F
33
3C
7F
E7
7B
3C
0E
EE
7C
78
ENDCHAR

STARTCHAR char168
ENCODING 168
SWIDTH 0 0
DWIDTH 0 0
BBX 6 2 -2 7
BITMAP
6C
FC
ENDCHAR

STARTCHAR char169
ENCODING 169
SWIDTH 71 0
DWIDTH 10 0
BBX 9 8 0 0
BITMAP
3E00
4100
DD80
F380
F180
F380
5D00
3E00
ENDCHAR

STARTCHAR char170
ENCODING 170
SWIDTH 0 0
DWIDTH 0 0
BBX 5 2 -1 9
BITMAP
D8
D8
ENDCHAR

STARTCHAR char171
ENCODING 171
SWIDTH 35 0
DWIDTH 5 0
BBX 5 5 0 1
BITMAP
28
78
90
D8
50
ENDCHAR

STARTCHAR char172
ENCODING 172
SWIDTH 64 0
DWIDTH 9 0
BBX 9 3 0 0
BITMAP
FF80
0180
0180
ENDCHAR

STARTCHAR char174
ENCODING 174
SWIDTH 71 0
DWIDTH 10 0
BBX 9 8 0 0
BITMAP
1E00
6100
DF80
DF80
DD80
DD80
5700
3E00
ENDCHAR

STARTCHAR char176
ENCODING 176
SWIDTH 28 0
DWIDTH 4 0
BBX 5 5 0 4
BITMAP
20
58
D8
58
20
ENDCHAR

STARTCHAR char177
ENCODING 177
SWIDTH 50 0
DWIDTH 7 0
BBX 6 8 0 0
BITMAP
30
30
FC
FC
30
30
FC
FC
ENDCHAR

STARTCHAR char179
ENCODING 179
SWIDTH 13 0
DWIDTH 12 0
BBX 0 0 0 0
BITMAP
ENDCHAR

STARTCHAR char180
ENCODING 180
SWIDTH 0 0
DWIDTH 0 0
BBX 3 2 0 7
BITMAP
60
C0
ENDCHAR

STARTCHAR char182
ENCODING 182
SWIDTH 64 0
DWIDTH 9 0
BBX 6 11 1 -2
BITMAP
7C
FC
CC
CC
4C
4C
4C
4C
4C
4C
4C
ENDCHAR

STARTCHAR char183
ENCODING 183
SWIDTH 14 0
DWIDTH 2 0
BBX 2 2 1 3
BITMAP
C0
C0
ENDCHAR

STARTCHAR char184
ENCODING 184
SWIDTH 0 0
DWIDTH 0 0
BBX 3 4 -2 -3
BITMAP
60
E0
C0
C0
ENDCHAR

STARTCHAR char186
ENCODING 186
SWIDTH 0 0
DWIDTH 0 0
BBX 5 2 -1 9
BITMAP
78
E8
ENDCHAR

STARTCHAR char187
ENCODING 187
SWIDTH 35 0
DWIDTH 5 0
BBX 5 5 0 1
BITMAP
50
78
48
D8
A0
ENDCHAR

STARTCHAR char189
ENCODING 189
SWIDTH 13 0
DWIDTH 12 0
BBX 0 0 0 0
BITMAP
ENDCHAR

STARTCHAR char191
ENCODING 191
SWIDTH 57 0
DWIDTH 8 0
BBX 7 9 0 0
BITMAP
1C
1C
10
00
38
70
EE
FE
7C
ENDCHAR

STARTCHAR char192
ENCODING 192
SWIDTH 71 0
DWIDTH 10 0
BBX 10 11 -1 0
BITMAP
0600
0300
0700
0700
0F80
1F80
1D80
3980
7F80
7FC0
71C0
ENDCHAR

STARTCHAR char193
ENCODING 193
SWIDTH 71 0
DWIDTH 10 0
BBX 10 11 -1 0
BITMAP
0380
0300
0700
0700
0F80
1F80
1D80
3980
7F80
7FC0
71C0
ENDCHAR

STARTCHAR char194
ENCODING 194
SWIDTH 71 0
DWIDTH 10 0
BBX 10 11 -1 0
BITMAP
0780
0F80
0700
0700
0F80
1F80
1D80
3980
7F80
7FC0
71C0
ENDCHAR

STARTCHAR char195
ENCODING 195
SWIDTH 71 0
DWIDTH 10 0
BBX 10 11 -1 0
BITMAP
0780
0E80
0700
0700
0F80
1F80
1D80
3980
7F80
7FC0
71C0
ENDCHAR

STARTCHAR char196
ENCODING 196
SWIDTH 71 0
DWIDTH 10 0
BBX 10 11 -1 0
BITMAP
06C0
01C0
0700
0700
0F80
1F80
1D80
3980
7F80
7FC0
71C0
ENDCHAR

STARTCHAR char197
ENCODING 197
SWIDTH 71 0
DWIDTH 10 0
BBX 10 12 -1 0
BITMAP
0780
0780
0380
0780
0780
0F80
1D80
1D80
3980
7FC0
7FC0
71C0
ENDCHAR

STARTCHAR char198
ENCODING 198
SWIDTH 20 0
DWIDTH 13 0
BBX 14 9 -1 0
BITMAP
07FC
0FF8
0DC0
1DF8
19F0
3980
3F80
7FF8
63F0
ENDCHAR

STARTCHAR char199
ENCODING 199
SWIDTH 71 0
DWIDTH 10 0
BBX 8 12 1 -3
BITMAP
1C
3E
63
E0
C0
C0
C6
7E
3C
30
70
20
ENDCHAR

STARTCHAR char200
ENCODING 200
SWIDTH 64 0
DWIDTH 9 0
BBX 9 11 0 0
BITMAP
1C00
0C00
3F80
3F80
7000
7F00
7F00
6000
E000
FF00
FF00
ENDCHAR

STARTCHAR char201
ENCODING 201
SWIDTH 64 0
DWIDTH 9 0
BBX 9 11 0 0
BITMAP
0700
0E00
3F80
3F80
7000
7F00
7F00
6000
E000
FF00
FF00
ENDCHAR

STARTCHAR char202
ENCODING 202
SWIDTH 64 0
DWIDTH 9 0
BBX 9 11 0 0
BITMAP
0E00
1B00
3F80
3F80
7000
7F00
7F00
6000
E000
FF00
FF00
ENDCHAR

STARTCHAR char203
ENCODING 203
SWIDTH 64 0
DWIDTH 9 0
BBX 9 11 0 0
BITMAP
1B00
1B00
3F80
3F80
7000
7F00
7F00
6000
E000
FF00
FF00
ENDCHAR

STARTCHAR char204
ENCODING 204
SWIDTH 28 0
DWIDTH 4 0
BBX 5 11 0 0
BITMAP
70
30
38
30
70
70
70
70
E0
E0
60
ENDCHAR

STARTCHAR char205
ENCODING 205
SWIDTH 28 0
DWIDTH 4 0
BBX 6 11 0 0
BITMAP
18
38
38
30
70
70
70
70
E0
E0
60
ENDCHAR

STARTCHAR char206
ENCODING 206
SWIDTH 28 0
DWIDTH 4 0
BBX 6 11 0 0
BITMAP
38
6C
38
30
70
70
70
70
E0
E0
60
ENDCHAR

STARTCHAR char207
ENCODING 207
SWIDTH 28 0
DWIDTH 4 0
BBX 6 11 0 0
BITMAP
6C
6C
38
30
70
70
70
70
E0
E0
60
ENDCHAR

STARTCHAR char209
ENCODING 209
SWIDTH 71 0
DWIDTH 10 0
BBX 10 11 0 0
BITMAP
0F00
1D00
39C0
3980
7980
6D80
6F80
6F80
EF00
E700
6700
ENDCHAR

STARTCHAR char210
ENCODING 210
SWIDTH 6 0
DWIDTH 11 0
BBX 9 11 1 0
BITMAP
1C00
0E00
1E00
3F00
7380
E180
C180
C380
C700
7E00
3C00
ENDCHAR

STARTCHAR char211
ENCODING 211
SWIDTH 6 0
DWIDTH 11 0
BBX 9 11 1 0
BITMAP
0600
0C00
1E00
3F00
7380
E180
C180
C380
C700
7E00
3C00
ENDCHAR

STARTCHAR char212
ENCODING 212
SWIDTH 6 0
DWIDTH 11 0
BBX 9 11 1 0
BITMAP
0F00
1B00
1E00
3F00
7380
E180
C180
C380
C700
7E00
3C00
ENDCHAR

STARTCHAR char213
ENCODING 213
SWIDTH 6 0
DWIDTH 11 0
BBX 9 11 1 0
BITMAP
1F00
1C00
1E00
3F00
7380
E180
C180
C380
C700
7E00
3C00
ENDCHAR

STARTCHAR char214
ENCODING 214
SWIDTH 6 0
DWIDTH 11 0
BBX 9 11 1 0
BITMAP
1B00
1B00
1E00
3F00
7380
E180
C180
C380
C700
7E00
3C00
ENDCHAR

STARTCHAR char216
ENCODING 216
SWIDTH 6 0
DWIDTH 11 0
BBX 10 9 0 0
BITMAP
0F40
3FC0
79C0
73C0
6DC0
79C0
7380
7F00
9E00
ENDCHAR

STARTCHAR char217
ENCODING 217
SWIDTH 71 0
DWIDTH 10 0
BBX 9 11 1 0
BITMAP
3800
1C00
6380
6380
6300
6700
E700
C700
CE00
FE00
7C00
ENDCHAR

STARTCHAR char218
ENCODING 218
SWIDTH 71 0
DWIDTH 10 0
BBX 9 11 1 0
BITMAP
0E00
0C00
6380
6380
6300
6700
E700
C700
CE00
FE00
7C00
ENDCHAR

STARTCHAR char219
ENCODING 219
SWIDTH 71 0
DWIDTH 10 0
BBX 9 11 1 0
BITMAP
1E00
1E00
6380
6380
6300
6700
E700
C700
CE00
FE00
7C00
ENDCHAR

STARTCHAR char220
ENCODING 220
SWIDTH 71 0
DWIDTH 10 0
BBX 10 11 0 0
BITMAP
0D80
1F80
31C0
71C0
7180
7380
7380
6380
E700
7F00
3E00
ENDCHAR

STARTCHAR char222
ENCODING 222
SWIDTH 13 0
DWIDTH 12 0
BBX 0 0 0 0
BITMAP
ENDCHAR

STARTCHAR char223
ENCODING 223
SWIDTH 57 0
DWIDTH 8 0
BBX 8 9 0 0
BITMAP
1E
3F
73
6E
6E
67
E7
FE
DC
ENDCHAR

STARTCHAR char224
ENCODING 224
SWIDTH 64 0
DWIDTH 9 0
BBX 8 9 0 0
BITMAP
38
1C
00
7E
73
7F
E7
FE
76
ENDCHAR

STARTCHAR char225
ENCODING 225
SWIDTH 64 0
DWIDTH 9 0
BBX 8 9 0 0
BITMAP
0E
0C
00
7E
73
7F
E7
FE
76
ENDCHAR

STARTCHAR char226
ENCODING 226
SWIDTH 64 0
DWIDTH 9 0
BBX 8 9 0 0
BITMAP
1E
3E
00
7E
73
7F
E7
FE
76
ENDCHAR

STARTCHAR char227
ENCODING 227
SWIDTH 64 0
DWIDTH 9 0
BBX 8 9 0 0
BITMAP
1E
3E
00
7E
73
7F
E7
FE
76
ENDCHAR

STARTCHAR char228
ENCODING 228
SWIDTH 64 0
DWIDTH 9 0
BBX 8 9 0 0
BITMAP
3B
3F
00
3E
77
7F
E7
FE
7E
ENDCHAR

STARTCHAR char229
ENCODING 229
SWIDTH 64 0
DWIDTH 9 0
BBX 8 10 0 0
BITMAP
14
1E
1C
1C
3F
0B
7F
E7
FE
FE
ENDCHAR

STARTCHAR char230
ENCODING 230
SWIDTH 20 0
DWIDTH 13 0
BBX 12 6 0 0
BITMAP
7FE0
1EF0
7FF0
FFF0
FFE0
73C0
ENDCHAR

STARTCHAR char231
ENCODING 231
SWIDTH 57 0
DWIDTH 8 0
BBX 6 9 1 -3
BITMAP
3C
7C
C0
CC
F8
78
60
60
40
ENDCHAR

STARTCHAR char232
ENCODING 232
SWIDTH 57 0
DWIDTH 8 0
BBX 8 9 0 0
BITMAP
38
18
00
3C
6E
FF
FF
FE
7C
ENDCHAR

STARTCHAR char233
ENCODING 233
SWIDTH 57 0
DWIDTH 8 0
BBX 8 9 0 0
BITMAP
0C
1C
00
3C
6E
FF
FF
FE
7C
ENDCHAR

STARTCHAR char234
ENCODING 234
SWIDTH 57 0
DWIDTH 8 0
BBX 8 9 0 0
BITMAP
1C
3E
00
3C
6E
FF
FF
FE
7C
ENDCHAR

STARTCHAR char235
ENCODING 235
SWIDTH 57 0
DWIDTH 8 0
BBX 8 9 0 0
BITMAP
36
36
00
3C
6E
FF
FF
FE
7C
ENDCHAR

STARTCHAR char236
ENCODING 236
SWIDTH 28 0
DWIDTH 4 0
BBX 4 9 0 0
BITMAP
60
60
00
70
70
60
E0
E0
60
ENDCHAR

STARTCHAR char237
ENCODING 237
SWIDTH 28 0
DWIDTH 4 0
BBX 5 9 0 0
BITMAP
30
30
00
70
70
60
E0
E0
60
ENDCHAR

STARTCHAR char238
ENCODING 238
SWIDTH 28 0
DWIDTH 4 0
BBX 5 9 0 0
BITMAP
70
F8
00
70
70
60
E0
E0
60
ENDCHAR

STARTCHAR char239
ENCODING 239
SWIDTH 28 0
DWIDTH 4 0
BBX 6 9 0 0
BITMAP
F8
D8
00
70
70
60
60
E0
60
ENDCHAR

STARTCHAR char241
ENCODING 241
SWIDTH 57 0
DWIDTH 8 0
BBX 8 9 0 0
BITMAP
1E
3C
04
7E
77
66
E6
EE
66
ENDCHAR

STARTCHAR char242
ENCODING 242
SWIDTH 57 0
DWIDTH 8 0
BBX 6 9 1 0
BITMAP
30
30
00
38
7C
CC
CC
F8
78
ENDCHAR

STARTCHAR char243
ENCODING 243
SWIDTH 57 0
DWIDTH 8 0
BBX 6 9 1 0
BITMAP
18
10
00
38
7C
CC
CC
F8
78
ENDCHAR

STARTCHAR char244
ENCODING 244
SWIDTH 57 0
DWIDTH 8 0
BBX 6 9 1 0
BITMAP
38
38
00
38
7C
CC
CC
F8
78
ENDCHAR

STARTCHAR char245
ENCODING 245
SWIDTH 57 0
DWIDTH 8 0
BBX 6 9 1 0
BITMAP
38
38
00
38
7C
CC
CC
F8
78
ENDCHAR

STARTCHAR char246
ENCODING 246
SWIDTH 57 0
DWIDTH 8 0
BBX 7 9 1 0
BITMAP
3C
3C
00
38
7C
CC
CC
F8
70
ENDCHAR

STARTCHAR char247
ENCODING 247
SWIDTH 50 0
DWIDTH 7 0
BBX 6 5 0 1
BITMAP
30
30
FC
FC
30
ENDCHAR

STARTCHAR char248
ENCODING 248
SWIDTH 57 0
DWIDTH 8 0
BBX 8 6 0 0
BITMAP
3D
7E
EF
F6
FE
FC
ENDCHAR

STARTCHAR char249
ENCODING 249
SWIDTH 57 0
DWIDTH 8 0
BBX 7 9 1 0
BITMAP
30
30
00
6E
CE
CC
CC
FC
E4
ENDCHAR

STARTCHAR char250
ENCODING 250
SWIDTH 57 0
DWIDTH 8 0
BBX 7 9 1 0
BITMAP
18
38
00
6E
CE
CC
CC
FC
E4
ENDCHAR

STARTCHAR char251
ENCODING 251
SWIDTH 57 0
DWIDTH 8 0
BBX 7 9 1 0
BITMAP
38
3C
00
6E
CE
CC
CC
FC
E4
ENDCHAR

STARTCHAR char252
ENCODING 252
SWIDTH 57 0
DWIDTH 8 0
BBX 8 9 0 0
BITMAP
3F
36
00
77
67
66
E6
FE
72
ENDCHAR

STARTCHAR char255
ENCODING 255
SWIDTH 50 0
DWIDTH 7 0
BBX 7 11 0 -2
BITMAP
36
7E
00
6E
6C
6C
78
78
70
F0
E0
ENDCHAR
ENDFONT
